<svg width="80" height="80" viewBox="0 0 80 80" fill="none" xmlns="http://www.w3.org/2000/svg">
<path d="M33.6293 3H51.1154C51.1154 3 46.8109 25.4094 49.764 39.149C55.2708 64.7692 61.0673 76 61.0673 76H48.3521C47.1458 75.2981 46.8364 71.4375 44.6709 67.226C44.6709 67.226 37.3633 62.3125 33.4852 58.101C29.6071 53.8894 25.0802 45.8173 25.0802 45.8173C24.6536 47.4713 20.2644 55.9952 19.9327 64.0673C19.6424 71.1316 22.0357 72.5089 21.0711 76H6C6 76 11.5633 52.4694 17.0135 38.0962C22.3814 23.9398 33.6293 3 33.6293 3ZM37.5912 17.0385C37.3014 17.0385 34.1971 21.9519 32.6642 24.7596C30.7016 28.3542 29.8846 29.3221 29.7174 31.0769C29.5502 32.8317 31.8317 38.0962 35.6992 42.6587C39.5668 47.2212 40.7309 48.274 40.7309 48.274C37.7353 37.6642 37.8811 17.0385 37.5912 17.0385Z" fill="white"/>
<path d="M66.0433 29.6731C66.0433 29.6731 68.4456 33.0872 70.1945 34.9375C71.9434 36.7878 75 39.149 75 39.149C75 39.149 71.6117 41.1593 69.8628 43.0096C68.1139 44.8599 66.0433 48.625 66.0433 48.625C66.0433 48.625 63.8114 44.8599 62.0625 43.0096C60.3136 41.1593 57.0865 39.149 57.0865 39.149C57.0865 39.149 60.3136 36.7878 62.0625 34.9375C63.8114 33.0872 66.0433 29.6731 66.0433 29.6731Z" fill="white"/>
</svg>
