<svg width="87" height="40" viewBox="0 0 87 40" fill="none" xmlns="http://www.w3.org/2000/svg">
<path d="M45.0341 39.528L44.3573 37.6398C43.9563 38.3216 43.3046 38.8855 42.4023 39.3313C41.5 39.7771 40.5726 40 39.6202 40C36.9383 40 34.8955 39.069 33.4919 37.2071C32.3139 35.6598 31.7249 33.6667 31.7249 31.2278C31.7249 27.7924 32.6773 25.1437 34.5822 23.2818C36.0109 21.8919 37.7278 21.1969 39.733 21.1969C41.4624 21.1969 42.9161 21.6952 44.0942 22.6917V16.9879L48.8313 14.2343V39.528H45.0341ZM44.0942 32.7227V27.7269C43.9187 26.8614 43.5177 26.1534 42.8911 25.6027C42.2895 25.0257 41.5752 24.7372 40.7481 24.7372C39.4698 24.7372 38.4547 25.2617 37.7027 26.3107C36.9508 27.3597 36.5748 28.7758 36.5748 30.5591C36.5748 34.4666 37.7905 36.4203 40.2217 36.4203C41.124 36.4203 41.9637 36.0532 42.7407 35.3189C43.5177 34.5584 43.9688 33.693 44.0942 32.7227Z" fill="white"/>
<path d="M58.5142 21.669V39.528H53.7394V21.669H58.5142ZM53.1755 17.1059C53.1755 16.2667 53.4512 15.5455 54.0026 14.9423C54.5791 14.3129 55.2558 13.9982 56.0328 13.9982C56.8599 13.9982 57.5617 14.2998 58.1382 14.903C58.7398 15.5062 59.0405 16.2405 59.0405 17.1059C59.0405 18.0237 58.7523 18.7711 58.1758 19.3481C57.6244 19.925 56.9101 20.2135 56.0328 20.2135C55.2057 20.2135 54.5164 19.925 53.965 19.3481C53.4386 18.7449 53.1755 17.9975 53.1755 17.1059Z" fill="white"/>
<path d="M68.1371 14.1556V39.528H63.4V16.7518L68.1371 14.1556Z" fill="white"/>
<path d="M87 39.528H83.2028L82.8268 37.8365C81.1725 39.2788 79.4932 40 77.7889 40C74.0041 40 72.1118 38.0725 72.1118 34.2175C72.1118 32.3031 72.9013 30.8083 74.4804 29.733C76.0845 28.6316 78.4531 28.0809 81.5861 28.0809H82.3756V28.0022C82.3756 26.8746 82.1501 26.1009 81.6989 25.6813C81.2477 25.2617 80.4331 25.0519 79.2551 25.0519C77.6009 25.0519 76.0845 25.6027 74.7059 26.7041C74.2548 25.8387 73.8287 24.9864 73.4277 24.1472C74.8563 22.9933 76.097 22.2197 77.1497 21.8263C78.2275 21.4067 79.5058 21.1969 80.9846 21.1969C84.9949 21.1969 87 23.8194 87 29.0643V39.528ZM82.2252 31.1098H81.6613C80.2326 31.1098 79.0797 31.3721 78.2024 31.8966C77.3252 32.4211 76.8865 33.116 76.8865 33.9814C76.8865 35.6074 77.5633 36.4203 78.9168 36.4203C79.7439 36.4203 80.4707 36.1712 81.0974 35.6729C81.724 35.1747 82.0999 34.5453 82.2252 33.7848V31.1098Z" fill="white"/>
<path d="M15.2007 0H24.821C24.821 0 22.4528 12.1929 24.0775 19.6685C27.1071 33.6083 30.2962 39.7189 30.2962 39.7189H23.3007C22.6371 39.337 22.4669 37.2365 21.2754 34.945C21.2754 34.945 17.2551 32.2716 15.1214 29.9801C12.9878 27.6887 10.4973 23.2967 10.4973 23.2967C10.2626 24.1966 7.84782 28.8344 7.66531 33.2264C7.50559 37.07 8.82234 37.8194 8.2916 39.7189H0C0 39.7189 3.06074 26.9161 6.05925 19.0956C9.01249 11.3932 15.2007 0 15.2007 0ZM17.3805 7.63825C17.221 7.63825 15.5131 10.3116 14.6698 11.8393C13.59 13.7951 13.1405 14.3217 13.0485 15.2765C12.9566 16.2313 14.2117 19.0956 16.3395 21.5781C18.4674 24.0605 19.1078 24.6334 19.1078 24.6334C17.4597 18.8606 17.5399 7.63825 17.3805 7.63825Z" fill="white"/>
</svg>
